<svg xmlns="http://www.w3.org/2000/svg" xmlns:xlink="http://www.w3.org/1999/xlink" width="168" height="168" viewBox="0 0 168 168">
  <defs>
    <clipPath id="clip-path">
      <circle id="Ellipse_32" data-name="Ellipse 32" cx="84" cy="84" r="84" transform="translate(764 660.496)" fill="#f7f2eb"/>
    </clipPath>
  </defs>
  <g id="Groupe_2681" data-name="Groupe 2681" transform="translate(-764 -667)">
    <circle id="Ellipse_48" data-name="Ellipse 48" cx="84" cy="84" r="84" transform="translate(764.001 667)" fill="#bae9ff" opacity="0.2"/>
    <g id="Groupe_de_masques_19" data-name="Groupe de masques 19" transform="translate(0 6.504)" clip-path="url(#clip-path)">
      <g id="Groupe_2639" data-name="Groupe 2639" transform="translate(788.927 687.352)">
        <g id="Groupe_2638" data-name="Groupe 2638" transform="translate(0 0)">
          <path id="Tracé_904" data-name="Tracé 904" d="M975.951,571.331a1.406,1.406,0,0,1-1.406-1.406v-11.5a23.157,23.157,0,0,0-7.78-16.685,28.484,28.484,0,0,0-9.184-5.686,33.833,33.833,0,0,0-12.229-2.188,1.406,1.406,0,0,1-1.105-.537l-3.744-4.759-33.233,32.615a1.406,1.406,0,0,1-2.193-.283l-10.69-17.922a1.406,1.406,0,0,1,2.416-1.441l9.774,16.386,33.077-32.461a1.406,1.406,0,0,1,2.09.134l4.3,5.461a36.429,36.429,0,0,1,12.554,2.371,31.285,31.285,0,0,1,10.085,6.248,25.972,25.972,0,0,1,8.678,18.747v11.5A1.406,1.406,0,0,1,975.951,571.331Z" transform="translate(-859.211 -448.839)" fill="#19518e"/>
          <path id="Tracé_905" data-name="Tracé 905" d="M916.432,491.55h-.042a22.783,22.783,0,0,1-11.9-3.338,29.309,29.309,0,0,1-9.1-8.95c-5-7.47-7.844-17.671-8.007-28.724-.143-9.724,2.429-17.338,7.645-22.631a25.084,25.084,0,0,1,9.852-6.073,35.528,35.528,0,0,1,11.512-1.8h.047a35.528,35.528,0,0,1,11.512,1.8,25.087,25.087,0,0,1,9.852,6.073c5.216,5.294,7.788,12.908,7.645,22.632-.162,11.053-3.006,21.254-8.007,28.724a29.307,29.307,0,0,1-9.1,8.95,22.783,22.783,0,0,1-11.9,3.338Zm-.016-68.708c-10.293,0-16.222,3.829-19.384,7.039-4.668,4.737-6.968,11.673-6.836,20.616.155,10.516,2.829,20.176,7.532,27.2a26.524,26.524,0,0,0,8.214,8.107,20.168,20.168,0,0,0,20.948,0A26.524,26.524,0,0,0,935.1,477.7c4.7-7.024,7.377-16.684,7.532-27.2.132-8.943-2.168-15.879-6.836-20.616C932.638,426.671,926.709,422.846,916.416,422.842Z" transform="translate(-857.343 -420.029)" fill="#19518e"/>
          <path id="Tracé_906" data-name="Tracé 906" d="M847.4,571.331a1.406,1.406,0,0,1-1.406-1.406v-11.5a25.972,25.972,0,0,1,8.679-18.747,31.285,31.285,0,0,1,10.085-6.248,36.427,36.427,0,0,1,12.554-2.371l4.3-5.461a1.407,1.407,0,0,1,2.091-.134l33.077,32.461,9.774-16.386a1.406,1.406,0,1,1,2.416,1.441L918.271,560.9a1.406,1.406,0,0,1-2.193.283l-33.234-32.615-3.744,4.759a1.406,1.406,0,0,1-1.105.537,33.833,33.833,0,0,0-12.229,2.188,28.484,28.484,0,0,0-9.184,5.686A23.157,23.157,0,0,0,848.8,558.42v11.5A1.406,1.406,0,0,1,847.4,571.331Z" transform="translate(-845.99 -448.838)" fill="#19518e"/>
          <path id="Tracé_907" data-name="Tracé 907" d="M888.859,459.308a1.407,1.407,0,0,1-.125-2.807c13.234-1.192,26.467-3.29,42.814-15.708a1.407,1.407,0,1,1,1.7,2.24,77,77,0,0,1-23.393,12.5,93.693,93.693,0,0,1-20.87,3.774C888.944,459.306,888.9,459.308,888.859,459.308Z" transform="translate(-857.364 -425.646)" fill="#19518e"/>
          <path id="Tracé_908" data-name="Tracé 908" d="M957.213,459.131h-.033a39.511,39.511,0,0,1-13.554-2.436,16.923,16.923,0,0,1-8.013-5.87,1.406,1.406,0,0,1,2.336-1.568,14.189,14.189,0,0,0,6.711,4.821,37.267,37.267,0,0,0,12.586,2.241,1.406,1.406,0,0,1-.032,2.813Z" transform="translate(-870.508 -427.875)" fill="#19518e"/>
          <path id="Ligne_41" data-name="Ligne 41" d="M17.1,1.813H.406A1.406,1.406,0,1,1,.406-1H17.1a1.406,1.406,0,0,1,0,2.813Z" transform="translate(79.463 121.479)" fill="#19518e"/>
        </g>
      </g>
    </g>
  </g>
</svg>
