<?xml version="1.0" standalone="no"?>
<!DOCTYPE svg PUBLIC "-//W3C//DTD SVG 20010904//EN"
 "http://www.w3.org/TR/2001/REC-SVG-20010904/DTD/svg10.dtd">
<svg xmlns="http://www.w3.org/2000/svg" width="25.758" height="22.098" viewBox="0 0 25.758 22.098">
  <path id="illu-cerveau" d="M29.064,23.5a3.374,3.374,0,0,1,2.04.72l.022.017.035-.012.066-.019.035-.009.056-.013.123-.026.11-.022.02,0h.05l.042,0,.076-.006.142-.014.082-.006.047,0h.024a3.082,3.082,0,0,1,2.706,1.605l.038.072.017,0a4.046,4.046,0,0,1,3.536,3.245l.017.093.017.008a3.33,3.33,0,0,1,1.893,2.858l0,.07v.071A3.682,3.682,0,0,1,40,33.423l-.022.056.019.043a3.266,3.266,0,0,1,.256,1.15l0,.1v.1a3.585,3.585,0,0,1-2.235,3.3l-.071.028v.022a5.568,5.568,0,0,1-.1.884l-.023.121-.023.111a4.794,4.794,0,0,1-4.9,3.606l-.1-.006.374,2.67h-3.5v-.529a4.576,4.576,0,0,0-4.163-4.224h-.061a4.422,4.422,0,0,1-4.351-2.8l-.01-.025-.053,0a4.8,4.8,0,0,1-.822-.142l-.093-.027-.07-.022-.121.013-.128.013-.116.01-.106.008-.1.006-.093,0-.09,0h-.044a4.766,4.766,0,0,1-3.358-8.149l.033-.031.006-.069a3.6,3.6,0,0,1,1.706-2.757l.064-.038.064-.035.161-.081.013-.009a.2.2,0,0,1,.029-.016l.061-.022a.188.188,0,0,1,.076-.043l.067-.02L18.2,26.6l0,0a.175.175,0,0,1,.037-.021l.022-.008.067-.02.018-.007.029-.015h.036l.016,0,.012,0,.044-.013.019,0,.016,0,.02-.009a.46.46,0,0,1,.136-.047l.02,0h.033l.017,0,.012,0a.3.3,0,0,1,.082-.019h.021l.018,0,.026-.005.019,0a.481.481,0,0,1,.09-.017h.225l.009-.014a3.043,3.043,0,0,1,2.438-1.395l.072,0h.072a3.336,3.336,0,0,1,.669.068l.045.009.016-.018a4.158,4.158,0,0,1,2.933-1.353l.087,0h.083a4.294,4.294,0,0,1,1.646.314l.043.018.02-.013a3.043,3.043,0,0,1,1.521-.488l.087,0h.083Zm.03,1.093a1.933,1.933,0,0,0-1.207.421l-.054.044-.28.245-.347-.173a3.412,3.412,0,0,0-1.484-.365,3.1,3.1,0,0,0-2.438,1.167l-.045.059-.245.35-.386-.14a2.173,2.173,0,0,0-.718-.139,1.936,1.936,0,0,0-1.729,1.044l-.2.4-.433-.034h-.057a2.41,2.41,0,0,0-2.409,2.409,2.444,2.444,0,0,0,2.322,2.407l.048,0,.019,0a.564.564,0,0,1,.573.225l.022.032a.575.575,0,0,1-.175.745l-.031.021a.927.927,0,0,0-.418.572.948.948,0,0,0,.1.707.578.578,0,0,1-.215.771.643.643,0,0,1-.274.067.558.558,0,0,1-.486-.277,2.052,2.052,0,0,1-.244-1.57,1.384,1.384,0,0,1,.09-.279l.034-.072-.019-.005a3.519,3.519,0,0,1-2.249-2.07l-.006-.016-.034.055a3.567,3.567,0,0,0-.5,1.742v.088a3.659,3.659,0,0,0,3.648,3.648,3.139,3.139,0,0,0,.641-.064l.084-.019.15-.038.138.07a2.909,2.909,0,0,0,.533.14l.085.013v-.027a3.1,3.1,0,0,1,1.689-2.657l.062-.03A.575.575,0,1,1,23.14,35.1a1.953,1.953,0,0,0-.956,2.556l.018.039,0,0a.182.182,0,0,1,.026.044l.008.024a.17.17,0,0,1,.006.031v.012l.025.049a3.25,3.25,0,0,0,3.078,1.779h.084a5.811,5.811,0,0,1,5.323,4.743l.009.069H31.89l-.408-2.973.8.21a3.629,3.629,0,0,0,4.431-2.634,3.767,3.767,0,0,0,.085-1.268,3.582,3.582,0,0,0-2.648-3.122l-.07-.018a.574.574,0,1,1,.276-1.113,4.791,4.791,0,0,1,3.434,3.43l.01.039,0,0a2.4,2.4,0,0,0,1.3-2.069v-.063a2.317,2.317,0,0,0-.247-1.079l-.035-.069-.1-.265.139-.278a1.975,1.975,0,0,0,.273-1.042,2.2,2.2,0,0,0-1.429-2.047l-.056-.02L37.3,29.96l-.035-.385A2.912,2.912,0,0,0,34.46,26.9h-.449l-.137-.38a1.984,1.984,0,0,0-1.839-1.292,2.115,2.115,0,0,0-.754.166l-.206.081a1.959,1.959,0,0,0-.987,1.638v.063a.56.56,0,1,1-1.12,0,3.065,3.065,0,0,1,1.072-2.314l.015-.013L30,24.816a1.861,1.861,0,0,0-.834-.222h-.069Zm4.09,12.622a.432.432,0,0,1,.547-.2l.029.013.019.01h0l.034.022a.467.467,0,0,1,.113.657,3.822,3.822,0,0,1-3.136,1.657,3.753,3.753,0,0,1-2.129-.65.47.47,0,0,1,.54-.77,2.925,2.925,0,0,0,2.147.447,2.84,2.84,0,0,0,1.832-1.187ZM23.8,32.507a.474.474,0,0,1,.627-.16l.029.018.055.036a3.028,3.028,0,0,1,.93,4.044L25.4,36.5l-.013.023a.454.454,0,0,1-.321.2l-.036,0H25a.632.632,0,0,1-.256-.074.474.474,0,0,1-.161-.625L24.6,36a2.057,2.057,0,0,0-.662-2.834.472.472,0,0,1-.142-.655Zm2.085-2.234a.485.485,0,0,1,.538.37l.006.03.01.069a3.2,3.2,0,0,0,2.115,2.532,3.268,3.268,0,0,0,2.463-.14,3.1,3.1,0,0,0,1.619-1.84.481.481,0,1,1,.908.317,4,4,0,0,1-2.126,2.363,4.232,4.232,0,0,1-1.8.413h-.079l-.069,0-.042,0,.032.06a3.473,3.473,0,0,1,.4,1.416l0,.1v.088a.48.48,0,0,1-.473.473.49.49,0,0,1-.331-.122l-.025-.024-.012-.013a.408.408,0,0,1-.08-.117.7.7,0,0,1-.028-.166A2.514,2.514,0,0,0,27.812,34a4.1,4.1,0,0,1-2.332-3.188.484.484,0,0,1,.4-.544Zm6.41-2.45a3.948,3.948,0,0,1,3.931,3.931.473.473,0,0,1-.947,0,2.989,2.989,0,0,0-2.985-2.985.473.473,0,1,1,0-.947Zm-5.7-.4a3.093,3.093,0,0,1,3.095,3.095.473.473,0,0,1-.946,0,2.153,2.153,0,0,0-2.093-2.149h-.056a.473.473,0,1,1,0-.945Zm-3.429-.374a.481.481,0,0,1,.473.477,1.4,1.4,0,0,0,1.3,1.423l.046,0a.48.48,0,0,1,.473.473.471.471,0,0,1-.474.5,2.247,2.247,0,0,1-1.4-.517l-.056-.046-.027-.023-.024.032a3.587,3.587,0,0,1-2.691,1.387l-.077,0h-.076a3.555,3.555,0,0,1-1.783-.478.479.479,0,0,1,.478-.83,2.646,2.646,0,0,0,3.543-.862l.043-.069-.014-.031a2.588,2.588,0,0,1-.2-.809l0-.081,0-.081a.481.481,0,0,1,.473-.473Z" transform="translate(-14.499 -23.5)" fill="#19518e"/>
</svg>
