<?xml version="1.0" standalone="no"?>
<!DOCTYPE svg PUBLIC "-//W3C//DTD SVG 20010904//EN"
 "http://www.w3.org/TR/2001/REC-SVG-20010904/DTD/svg10.dtd">
<svg xmlns="http://www.w3.org/2000/svg" width="25.757" height="15" viewBox="0 0 25.757 15">
  <path id="illu-eye" d="M24.678,40.318a15.264,15.264,0,0,1,12.787,7.121.514.514,0,0,1,.091.3v.182a.415.415,0,0,1-.061.242,14.644,14.644,0,0,1-12.818,7.152A15.251,15.251,0,0,1,11.89,48.2a.516.516,0,0,1-.091-.3v-.181a.416.416,0,0,1,.06-.242,14.645,14.645,0,0,1,12.818-7.152Zm0,1.212a13.423,13.423,0,0,0-11.606,6.3,14.316,14.316,0,0,0,11.606,6.3,13.423,13.423,0,0,0,11.606-6.3A14.316,14.316,0,0,0,24.678,41.53Zm0,1.152a5.151,5.151,0,1,1-5.151,5.151A5.148,5.148,0,0,1,24.678,42.682Z" transform="translate(-11.799 -40.318)" fill="#19518e" fill-rule="evenodd"/>
</svg>
