<svg id="Groupe_3" data-name="Groupe 3" xmlns="http://www.w3.org/2000/svg" xmlns:xlink="http://www.w3.org/1999/xlink" width="200.727" height="89" viewBox="0 0 200.727 89">
  <defs>
    <clipPath id="clip-path">
      <rect id="Rectangle_5" data-name="Rectangle 5" width="200.727" height="89" fill="#f28801"/>
    </clipPath>
  </defs>
  <rect id="Rectangle_2" data-name="Rectangle 2" width="89" height="89" fill="#f28801"/>
  <g id="Groupe_2" data-name="Groupe 2">
    <g id="Groupe_1" data-name="Groupe 1" clip-path="url(#clip-path)">
      <path id="Tracé_1" data-name="Tracé 1" d="M199.608,55.792l-1.685-2.954a2.755,2.755,0,0,1-.32.012h-.9v2.942h-1.637V47.665h2.859a3.756,3.756,0,0,1,2.61.676,2.9,2.9,0,0,1-.023,3.808,2.043,2.043,0,0,1-.878.475l1.874,3.168Zm-1.768-6.846H196.7v2.681h1.151c1.234,0,1.709-.427,1.709-1.34,0-1.02-.617-1.341-1.721-1.341" transform="translate(-83.71 -20.455)" fill="#f28801"/>
      <path id="Tracé_2" data-name="Tracé 2" d="M208.535,56.8a3.108,3.108,0,0,1-.914-2.515,3.135,3.135,0,0,1,.914-2.527,3.181,3.181,0,0,1,2.159-.641,3.219,3.219,0,0,1,2.159.641,3.146,3.146,0,0,1,.914,2.515,3.132,3.132,0,0,1-.914,2.527,3.18,3.18,0,0,1-2.159.641,3.22,3.22,0,0,1-2.159-.641m3.654-2.491c0-1.34-.44-2.017-1.5-2.017-1.1,0-1.495.593-1.495,1.957,0,1.341.438,2.029,1.495,2.029,1.1,0,1.5-.605,1.5-1.969" transform="translate(-89.098 -21.935)" fill="#f28801"/>
      <path id="Tracé_3" data-name="Tracé 3" d="M221.781,56.2a1.651,1.651,0,0,1-1.6-.855,3.71,3.71,0,0,1-.332-1.743V51.2h-.937V50.041h.937L220,48.226h1.388v1.815H223.1V51.2h-1.709v2.16a3.55,3.55,0,0,0,.107,1.068.729.729,0,0,0,.807.558,5.835,5.835,0,0,0,.866-.119v1.115a6.823,6.823,0,0,1-1.388.214" transform="translate(-93.943 -20.696)" fill="#f28801"/>
      <path id="Tracé_4" data-name="Tracé 4" d="M232.379,55.5V51.82a1.045,1.045,0,0,0-1.175-1.2,3.923,3.923,0,0,0-1.376.321V55.5h-1.542V46.979h1.542v2.776a6.019,6.019,0,0,1,1.934-.415,2.082,2.082,0,0,1,1.673.676,2.424,2.424,0,0,1,.486,1.709V55.5Z" transform="translate(-97.967 -20.161)" fill="#f28801"/>
      <path id="Tracé_5" data-name="Tracé 5" d="M244.141,57.094a3.591,3.591,0,0,1-1.839.344,16.068,16.068,0,0,1-1.862-.107V56.168a13.907,13.907,0,0,0,1.685.13,3.431,3.431,0,0,0,.973-.107.56.56,0,0,0,.4-.581c0-.344-.19-.522-.569-.641-.273-.1-.534-.143-.925-.237-1.068-.273-1.578-.724-1.578-1.744a1.7,1.7,0,0,1,.783-1.542,3.348,3.348,0,0,1,1.756-.332,15.724,15.724,0,0,1,1.685.107v1.115a15.325,15.325,0,0,0-1.554-.119,2.85,2.85,0,0,0-.831.1.529.529,0,0,0-.38.546c0,.308.166.462.522.581.249.083.533.142.854.225,1.127.249,1.7.735,1.7,1.827a1.763,1.763,0,0,1-.819,1.6" transform="translate(-103.177 -21.935)" fill="#f28801"/>
      <path id="Tracé_6" data-name="Tracé 6" d="M252.211,57.438a2.419,2.419,0,0,1-1.791-.688,3.447,3.447,0,0,1-.783-2.479,2.77,2.77,0,0,1,3.133-3.156,14.454,14.454,0,0,1,1.542.107v1.2a12.277,12.277,0,0,0-1.317-.083c-1.281,0-1.779.629-1.779,1.946,0,1.162.45,1.934,1.507,1.934a7.232,7.232,0,0,0,1.684-.308v1.151a8.534,8.534,0,0,1-2.195.38" transform="translate(-107.129 -21.935)" fill="#f28801"/>
      <path id="Tracé_7" data-name="Tracé 7" d="M264.4,55.5V51.82a1.045,1.045,0,0,0-1.175-1.2,3.923,3.923,0,0,0-1.376.321V55.5H260.3V46.979h1.542v2.776a6.018,6.018,0,0,1,1.934-.415,2.082,2.082,0,0,1,1.673.676,2.424,2.424,0,0,1,.486,1.709V55.5Z" transform="translate(-111.706 -20.161)" fill="#f28801"/>
      <path id="Tracé_8" data-name="Tracé 8" d="M273.046,46.979h1.661v1.388h-1.661Zm1.566,8.518H273.1V49.506h1.542V55.5Z" transform="translate(-117.175 -20.161)" fill="#f28801"/>
      <rect id="Rectangle_3" data-name="Rectangle 3" width="1.542" height="8.518" transform="translate(159.277 26.818)" fill="#f28801"/>
      <path id="Tracé_9" data-name="Tracé 9" d="M288.446,55.5l-.035-.32a7.089,7.089,0,0,1-2.124.486,2.281,2.281,0,0,1-1.673-.641,3.443,3.443,0,0,1-.759-2.515,3.255,3.255,0,0,1,1.021-2.586,3.056,3.056,0,0,1,1.981-.581,4.678,4.678,0,0,1,1.352.225V46.979h1.542V55.5Zm-.237-1.436v-3.31a2.789,2.789,0,0,0-1.1-.225c-1.091,0-1.672.581-1.672,1.934s.51,1.922,1.376,1.922a4.488,4.488,0,0,0,1.4-.32" transform="translate(-121.813 -20.161)" fill="#f28801"/>
      <path id="Tracé_10" data-name="Tracé 10" d="M228.605,80.739v-5.92h-.047l-2.04,5.92H224.75l-1.981-5.92h-.024v5.92h-1.423V72.612h2.3l2.136,6.335h.035l2.147-6.335H230.2v8.127Z" transform="translate(-94.978 -31.161)" fill="#f28801"/>
      <path id="Tracé_11" data-name="Tracé 11" d="M242.148,82.385a2.676,2.676,0,0,1-1.957-.688,3.467,3.467,0,0,1-.783-2.48,3.313,3.313,0,0,1,.9-2.515,3.531,3.531,0,0,1,4.022-.024c.759.653.807,1.578.807,2.883h-4.164c.035,1.115.557,1.649,1.625,1.649a11.764,11.764,0,0,0,2.313-.32v1.1a13.522,13.522,0,0,1-2.765.391m.131-5.339c-.938,0-1.246.593-1.3,1.519H243.6c-.036-1.021-.38-1.519-1.317-1.519" transform="translate(-102.739 -32.641)" fill="#f28801"/>
      <path id="Tracé_12" data-name="Tracé 12" d="M255.412,80.445l-.035-.32a7.072,7.072,0,0,1-2.124.486,2.283,2.283,0,0,1-1.673-.641,3.446,3.446,0,0,1-.759-2.516,3.255,3.255,0,0,1,1.021-2.586,3.053,3.053,0,0,1,1.981-.581,4.678,4.678,0,0,1,1.352.225V71.927h1.542v8.518Zm-.237-1.436V75.7a2.789,2.789,0,0,0-1.1-.225c-1.091,0-1.672.581-1.672,1.934s.51,1.923,1.376,1.923a4.49,4.49,0,0,0,1.4-.321" transform="translate(-107.637 -30.867)" fill="#f28801"/>
      <path id="Tracé_13" data-name="Tracé 13" d="M264.21,71.926h1.661v1.388H264.21Zm1.566,8.518h-1.507V74.453h1.542v5.991Z" transform="translate(-113.383 -30.866)" fill="#f28801"/>
      <path id="Tracé_14" data-name="Tracé 14" d="M271.732,82.385a2.419,2.419,0,0,1-1.791-.688,3.448,3.448,0,0,1-.783-2.48,2.77,2.77,0,0,1,3.133-3.156,14.453,14.453,0,0,1,1.542.107v1.2a12.278,12.278,0,0,0-1.317-.083c-1.281,0-1.779.629-1.779,1.946,0,1.162.451,1.934,1.507,1.934a7.206,7.206,0,0,0,1.684-.309v1.151a8.534,8.534,0,0,1-2.195.38" transform="translate(-115.506 -32.641)" fill="#f28801"/>
      <path id="Tracé_15" data-name="Tracé 15" d="M283.007,82.219l-.035-.32a6.8,6.8,0,0,1-2.2.486,2.032,2.032,0,0,1-1.412-.486,1.777,1.777,0,0,1-.581-1.424,1.713,1.713,0,0,1,.865-1.59,3.141,3.141,0,0,1,1.578-.3c.415,0,1.008.035,1.542.083v-.2c0-.9-.38-1.258-1.637-1.258a15.722,15.722,0,0,0-1.649.095V76.169c.641-.059,1.294-.107,1.934-.107a3.436,3.436,0,0,1,2.254.57,2.36,2.36,0,0,1,.641,1.993v3.595Zm-.237-2.563a12.271,12.271,0,0,0-1.281-.071c-.89,0-1.21.308-1.21.842a.855.855,0,0,0,.973.866,5.569,5.569,0,0,0,1.519-.3Z" transform="translate(-119.637 -32.641)" fill="#f28801"/>
      <rect id="Rectangle_4" data-name="Rectangle 4" width="1.542" height="8.518" transform="translate(166.397 41.06)" fill="#f28801"/>
      <path id="Tracé_16" data-name="Tracé 16" d="M211.9,105.687l-.652-1.875h-3.215l-.653,1.875h-1.7l2.978-8.127h2.04l2.978,8.127Zm-2.242-6.6h-.035l-1.175,3.429h2.385Z" transform="translate(-88.268 -41.867)" fill="#f28801"/>
      <path id="Tracé_17" data-name="Tracé 17" d="M222.918,107.334a2.419,2.419,0,0,1-1.792-.688,3.448,3.448,0,0,1-.783-2.48,2.77,2.77,0,0,1,3.133-3.155,14.445,14.445,0,0,1,1.542.106v1.2a12.422,12.422,0,0,0-1.317-.083c-1.281,0-1.779.629-1.779,1.946,0,1.162.45,1.933,1.507,1.933a7.232,7.232,0,0,0,1.684-.308v1.151a8.557,8.557,0,0,1-2.194.379" transform="translate(-94.558 -43.348)" fill="#f28801"/>
      <path id="Tracé_18" data-name="Tracé 18" d="M234.193,107.167l-.035-.32a6.8,6.8,0,0,1-2.195.486,2.032,2.032,0,0,1-1.412-.486,1.776,1.776,0,0,1-.581-1.424,1.714,1.714,0,0,1,.865-1.59,3.145,3.145,0,0,1,1.578-.3c.415,0,1.008.035,1.542.083v-.2c0-.9-.38-1.258-1.637-1.258a15.719,15.719,0,0,0-1.649.095v-1.139c.641-.06,1.294-.107,1.934-.107a3.436,3.436,0,0,1,2.254.569,2.361,2.361,0,0,1,.641,1.993v3.595Zm-.237-2.562a12.127,12.127,0,0,0-1.281-.071c-.89,0-1.21.309-1.21.843a.854.854,0,0,0,.973.865,5.543,5.543,0,0,0,1.518-.3Z" transform="translate(-98.689 -43.347)" fill="#f28801"/>
      <path id="Tracé_19" data-name="Tracé 19" d="M246.244,105.392l-.035-.32a7.073,7.073,0,0,1-2.124.486,2.28,2.28,0,0,1-1.673-.64,3.443,3.443,0,0,1-.759-2.515,3.256,3.256,0,0,1,1.021-2.587,3.056,3.056,0,0,1,1.981-.581,4.7,4.7,0,0,1,1.352.225V96.874h1.542v8.518Zm-.237-1.435v-3.31a2.8,2.8,0,0,0-1.1-.225c-1.091,0-1.672.581-1.672,1.933s.51,1.923,1.376,1.923a4.488,4.488,0,0,0,1.4-.32" transform="translate(-103.703 -41.572)" fill="#f28801"/>
      <path id="Tracé_20" data-name="Tracé 20" d="M256.867,107.333a2.672,2.672,0,0,1-1.957-.688,3.465,3.465,0,0,1-.783-2.479,3.314,3.314,0,0,1,.9-2.516,3.532,3.532,0,0,1,4.022-.023c.759.652.807,1.578.807,2.883h-4.164c.035,1.115.557,1.649,1.625,1.649a11.766,11.766,0,0,0,2.313-.321v1.1a13.523,13.523,0,0,1-2.765.392m.131-5.339c-.937,0-1.246.593-1.3,1.518h2.622c-.036-1.02-.38-1.518-1.318-1.518" transform="translate(-109.056 -43.347)" fill="#f28801"/>
      <path id="Tracé_21" data-name="Tracé 21" d="M274.549,107.168v-3.677a1.048,1.048,0,0,0-1.187-1.2,4.325,4.325,0,0,0-1.459.344,2.7,2.7,0,0,1,.083.759v3.772h-1.531v-3.677a1.053,1.053,0,0,0-1.187-1.2,3.915,3.915,0,0,0-1.376.32v4.555h-1.542v-5.991h1.3l.035.32a6.525,6.525,0,0,1,2.136-.486,2.149,2.149,0,0,1,1.613.6,7.8,7.8,0,0,1,2.491-.6,2.154,2.154,0,0,1,1.673.675,2.428,2.428,0,0,1,.486,1.709v3.772Z" transform="translate(-114.302 -43.348)" fill="#f28801"/>
      <path id="Tracé_22" data-name="Tracé 22" d="M284.99,109.558v-1.21a8.589,8.589,0,0,0,1.02.071,1.088,1.088,0,0,0,1.2-.831l.106-.3-2.586-5.991h1.708l1.673,4.247h.035l1.376-4.247h1.542l-2.278,6.418a2.43,2.43,0,0,1-2.621,1.935,10.231,10.231,0,0,1-1.175-.1" transform="translate(-122.188 -43.472)" fill="#f28801"/>
      <path id="Tracé_23" data-name="Tracé 23" d="M308.067,83.958a2.892,2.892,0,0,1-1.324-.309c-1.2-.607-1.859-2.015-1.864-3.962L304.8,51.632c-.006-1.946.65-3.361,1.847-3.983s2.732-.347,4.322.775L329.09,61.218a4.921,4.921,0,0,1,.054,8.463l-18.1,13.138a5.2,5.2,0,0,1-2.974,1.139m-.06-35.489a1.8,1.8,0,0,0-.837.192c-.787.409-1.237,1.491-1.232,2.967l.082,28.056c0,1.475.456,2.549,1.24,2.947s1.917.13,3.112-.737l18.1-13.138a3.79,3.79,0,0,0-.044-6.607L310.306,49.356a4.177,4.177,0,0,0-2.3-.887" transform="translate(-130.8 -20.308)" fill="#f28801"/>
      <path id="Tracé_24" data-name="Tracé 24" d="M17.374,107.233l.376.075a.1.1,0,0,1,.075.113v.27H16.307v-.27a.11.11,0,0,1,.1-.119l.352-.068v-1.588H14.337v1.588q.451.093.452.188v.27H13.276v-.27a.109.109,0,0,1,.094-.119l.358-.068V103.65l-.376-.076a.1.1,0,0,1-.076-.112V103.2h1.513v.263c0,.062-.021.1-.063.112s-.174.038-.383.076V105.2h2.423V103.65l-.377-.076a.1.1,0,0,1-.075-.112V103.2h1.518v.263a.109.109,0,0,1-.094.119l-.364.069Z" transform="translate(-5.697 -44.286)" fill="#fff"/>
      <path id="Tracé_25" data-name="Tracé 25" d="M26.652,105.624a2.139,2.139,0,0,1-.452.728,1.979,1.979,0,0,1-.7.47,2.4,2.4,0,0,1-1.807,0,2.091,2.091,0,0,1-.7-.47,2.149,2.149,0,0,1-.452-.728,2.731,2.731,0,0,1,0-1.857,2.161,2.161,0,0,1,.452-.728,2.027,2.027,0,0,1,.7-.477,2.5,2.5,0,0,1,1.807,0,2.1,2.1,0,0,1,.7.471,2.153,2.153,0,0,1,.452.728,2.607,2.607,0,0,1,.156.929l-.006.013a2.571,2.571,0,0,1-.158.922m-.583-1.669a1.592,1.592,0,0,0-.313-.559,1.361,1.361,0,0,0-.5-.345,1.752,1.752,0,0,0-.665-.119,1.716,1.716,0,0,0-.652.119,1.354,1.354,0,0,0-.5.345,1.585,1.585,0,0,0-.327.559,2.514,2.514,0,0,0,0,1.487,1.525,1.525,0,0,0,.327.552,1.406,1.406,0,0,0,.5.352,1.79,1.79,0,0,0,1.318,0,1.413,1.413,0,0,0,.5-.352,1.569,1.569,0,0,0,.32-.552,2.306,2.306,0,0,0,.112-.74h-.006a2.261,2.261,0,0,0-.113-.747m-.954-1.864a.305.305,0,0,1-.075-.032l-.4-.294-.038-.031c-.017.017-.029.025-.038.025l-.414.3a.157.157,0,0,1-.069.031.356.356,0,0,1-.082.006h-.427l.753-.653h.553l.74.653-.42.006a.388.388,0,0,1-.082-.006" transform="translate(-9.604 -43.531)" fill="#fff"/>
      <path id="Tracé_26" data-name="Tracé 26" d="M34.712,104.59a1.277,1.277,0,0,1-.426,1.017,1.818,1.818,0,0,1-1.242.4H32.4v1.224a3.554,3.554,0,0,0,.364.075.107.107,0,0,1,.087.119v.264H31.349v-.264a.108.108,0,0,1,.094-.119l.357-.069v-3.583c-.2-.038-.32-.063-.357-.075a.108.108,0,0,1-.094-.119V103.2h1.694a2.645,2.645,0,0,1,.74.094v-.006a1.248,1.248,0,0,1,.929,1.3m-.872-.678a1.147,1.147,0,0,0-.8-.238H32.4v1.844h.641a1.127,1.127,0,0,0,.784-.251.88.88,0,0,0,.283-.684l-.007-.006a.864.864,0,0,0-.263-.666" transform="translate(-13.453 -44.286)" fill="#fff"/>
      <path id="Tracé_27" data-name="Tracé 27" d="M39.449,107.233l.382.075a.1.1,0,0,1,.076.113v.27H38.4v-.27a.107.107,0,0,1,.088-.119l.364-.068V103.65l-.376-.076a.1.1,0,0,1-.075-.112V103.2h1.513v.263a.109.109,0,0,1-.094.119l-.364.069Z" transform="translate(-16.477 -44.286)" fill="#fff"/>
      <path id="Tracé_28" data-name="Tracé 28" d="M45.868,104.189H45.56c-.067,0-.107-.021-.119-.062a2.7,2.7,0,0,1-.063-.415H44.324v3.527l.075.013q.289.057.314.063c.042.012.062.05.062.112v.264H43.257v-.264a.128.128,0,0,1,.029-.085.114.114,0,0,1,.078-.041l.345-.068v-3.527H42.648c-.025.235-.043.375-.056.421s-.055.062-.126.062h-.3V103.2h3.7Z" transform="translate(-18.095 -44.286)" fill="#fff"/>
      <path id="Tracé_29" data-name="Tracé 29" d="M54.2,107.439v.251H52.907v-.251a.1.1,0,0,1,.088-.1l.257-.075-.351-.9H50.961l-.352.9.257.075a.1.1,0,0,1,.082.1v.251H49.662v-.251a.1.1,0,0,1,.082-.1l.251-.075,1.632-4.066h.615l1.625,4.066.252.075a.1.1,0,0,1,.081.1M52.066,104.2c-.034-.083-.08-.226-.138-.426q-.075.289-.126.426l-.672,1.725h1.6Z" transform="translate(-21.312 -44.286)" fill="#fff"/>
      <path id="Tracé_30" data-name="Tracé 30" d="M58.8,107.691v-.27a.132.132,0,0,1,.025-.078.1.1,0,0,1,.069-.041l.357-.068V103.65l-.357-.069a.1.1,0,0,1-.069-.041.133.133,0,0,1-.025-.079V103.2H60.3v.263a.133.133,0,0,1-.025.079.1.1,0,0,1-.069.041l-.357.069v3.527H61.47a2.565,2.565,0,0,1,.038-.358.115.115,0,0,1,.043-.075.133.133,0,0,1,.088-.032h.308v.979Z" transform="translate(-25.232 -44.286)" fill="#fff"/>
      <path id="Tracé_31" data-name="Tracé 31" d="M74.77,104.283h-.308a.116.116,0,0,1-.126-.106c0-.013-.005-.062-.015-.147s-.022-.2-.035-.336H72.5v1.576h1.707v.489H72.5v1.481l.352.069a.11.11,0,0,1,.1.119v.264H71.438v-.264a.108.108,0,0,1,.094-.119l.357-.069v-3.583c-.2-.037-.32-.063-.357-.075a.108.108,0,0,1-.094-.119V103.2H74.77Z" transform="translate(-30.657 -44.286)" fill="#fff"/>
      <path id="Tracé_32" data-name="Tracé 32" d="M82.424,106.615a2.028,2.028,0,0,1-.784.812,2.4,2.4,0,0,1-2.3-.006,2.028,2.028,0,0,1-.787-.819,2.667,2.667,0,0,1,0-2.378,2.035,2.035,0,0,1,.784-.82,2.43,2.43,0,0,1,2.312,0,2.039,2.039,0,0,1,.782.812,2.489,2.489,0,0,1,.279,1.193l-.006.013a2.478,2.478,0,0,1-.283,1.2m-.762-2.486a1.476,1.476,0,0,0-1.177-.48,1.586,1.586,0,0,0-.865.225,1.431,1.431,0,0,0-.543.627,2.159,2.159,0,0,0-.186.917,2.105,2.105,0,0,0,.195.932,1.449,1.449,0,0,0,.555.618,1.605,1.605,0,0,0,.85.219,1.583,1.583,0,0,0,.853-.223,1.45,1.45,0,0,0,.549-.625,2.116,2.116,0,0,0,.191-.922h-.006a1.9,1.9,0,0,0-.417-1.29" transform="translate(-33.591 -44.249)" fill="#fff"/>
      <path id="Tracé_33" data-name="Tracé 33" d="M91.8,103.473a.107.107,0,0,1-.1.113l-.358.075V107.7h-.307a.268.268,0,0,1-.214-.106l-2.6-3.389a2.7,2.7,0,0,1,.013.289v2.749c.117.017.257.042.42.076a.1.1,0,0,1,.088.112v.269H87.247v-.269a.1.1,0,0,1,.094-.112l.357-.076v-3.577q-.3-.056-.357-.075a.107.107,0,0,1-.094-.119V103.2h.765a.275.275,0,0,1,.119.018.486.486,0,0,1,.094.082l2.6,3.389a2.528,2.528,0,0,1-.013-.3v-2.724c-.121-.017-.218-.033-.288-.047s-.113-.024-.126-.029a.107.107,0,0,1-.1-.113V103.2H91.8Z" transform="translate(-37.441 -44.286)" fill="#fff"/>
      <path id="Tracé_34" data-name="Tracé 34" d="M100.342,106.617a1.964,1.964,0,0,1-.778.791,2.326,2.326,0,0,1-1.161.283H96.326v-.264a.11.11,0,0,1,.1-.119l.352-.069v-3.583l-.352-.075a.11.11,0,0,1-.1-.119V103.2H98.4a2.334,2.334,0,0,1,1.174.285,1.948,1.948,0,0,1,.771.794,2.648,2.648,0,0,1-.006,2.341m-.765-2.454a1.471,1.471,0,0,0-1.174-.477h-1.01V107.2H98.4a1.481,1.481,0,0,0,1.17-.47,2.188,2.188,0,0,0,0-2.567" transform="translate(-41.337 -44.286)" fill="#fff"/>
      <path id="Tracé_35" data-name="Tracé 35" d="M109.48,107.439v.251h-1.292v-.251a.1.1,0,0,1,.088-.1l.257-.075-.351-.9h-1.939l-.352.9.257.075a.1.1,0,0,1,.082.1v.251h-1.287v-.251a.1.1,0,0,1,.082-.1l.251-.075,1.632-4.066h.615l1.625,4.066.252.075a.1.1,0,0,1,.081.1m-2.133-3.244c-.034-.083-.08-.226-.138-.426q-.075.289-.126.426l-.672,1.725h1.6Z" transform="translate(-45.035 -44.286)" fill="#fff"/>
      <path id="Tracé_36" data-name="Tracé 36" d="M117.65,104.189h-.308c-.067,0-.107-.021-.119-.062a2.7,2.7,0,0,1-.063-.415h-1.054v3.527l.075.013q.289.057.314.063c.042.012.062.05.062.112v.264h-1.518v-.264a.128.128,0,0,1,.029-.085.114.114,0,0,1,.078-.041l.345-.068v-3.527H114.43c-.025.235-.043.375-.056.421s-.055.062-.126.062h-.3V103.2h3.7Z" transform="translate(-48.9 -44.286)" fill="#fff"/>
      <path id="Tracé_37" data-name="Tracé 37" d="M122.6,107.233l.382.075a.1.1,0,0,1,.076.113v.27h-1.513v-.27a.107.107,0,0,1,.088-.119l.364-.068V103.65l-.376-.076a.1.1,0,0,1-.075-.112V103.2h1.513v.263a.109.109,0,0,1-.094.119l-.364.069Z" transform="translate(-52.159 -44.286)" fill="#fff"/>
      <path id="Tracé_38" data-name="Tracé 38" d="M129.461,106.615a2.028,2.028,0,0,1-.784.812,2.4,2.4,0,0,1-2.3-.006,2.028,2.028,0,0,1-.787-.819,2.667,2.667,0,0,1,0-2.378,2.035,2.035,0,0,1,.784-.82,2.43,2.43,0,0,1,2.312,0,2.039,2.039,0,0,1,.782.812,2.489,2.489,0,0,1,.279,1.193l-.006.013a2.478,2.478,0,0,1-.283,1.2m-.762-2.486a1.476,1.476,0,0,0-1.177-.48,1.586,1.586,0,0,0-.865.225,1.432,1.432,0,0,0-.543.627,2.159,2.159,0,0,0-.186.917,2.105,2.105,0,0,0,.195.932,1.449,1.449,0,0,0,.555.618,1.605,1.605,0,0,0,.85.219,1.583,1.583,0,0,0,.853-.223,1.45,1.45,0,0,0,.549-.625,2.116,2.116,0,0,0,.191-.922h-.006a1.9,1.9,0,0,0-.417-1.29" transform="translate(-53.777 -44.249)" fill="#fff"/>
      <path id="Tracé_39" data-name="Tracé 39" d="M138.839,103.473a.107.107,0,0,1-.1.113l-.358.075V107.7h-.307a.268.268,0,0,1-.214-.106l-2.6-3.389a2.7,2.7,0,0,1,.013.289v2.749c.117.017.257.042.42.076a.1.1,0,0,1,.089.112v.269h-1.493v-.269a.1.1,0,0,1,.094-.112l.357-.076v-3.577q-.3-.056-.357-.075a.107.107,0,0,1-.094-.119V103.2h.765a.275.275,0,0,1,.119.018.485.485,0,0,1,.094.082l2.6,3.389a2.534,2.534,0,0,1-.013-.3v-2.724c-.121-.017-.217-.033-.288-.047s-.113-.024-.126-.029a.107.107,0,0,1-.1-.113V103.2h1.507Z" transform="translate(-57.627 -44.286)" fill="#fff"/>
      <path id="Tracé_40" data-name="Tracé 40" d="M13.256,135.678v-2.865h.393v2.518h1.443v.347Z" transform="translate(-5.689 -56.996)" fill="#fff"/>
      <path id="Tracé_41" data-name="Tracé 41" d="M20.2,135.678l-.28-.773H18.7l-.284.773h-.4l1.062-2.864h.481l1.062,2.864Zm-.882-2.467h-.013l-.5,1.371h1Z" transform="translate(-7.733 -56.996)" fill="#fff"/>
      <path id="Tracé_42" data-name="Tracé 42" d="M29.721,135.679l-.64-1.108c-.05,0-.1,0-.146,0H28.5v1.1H28.1v-2.864h.878a1.243,1.243,0,0,1,.873.234.85.85,0,0,1,.239.648.832.832,0,0,1-.226.611.76.76,0,0,1-.372.209l.677,1.162Zm-.748-2.542H28.5v1.125h.477c.531,0,.715-.2.715-.561,0-.409-.247-.564-.715-.564" transform="translate(-12.06 -56.996)" fill="#fff"/>
      <path id="Tracé_43" data-name="Tracé 43" d="M34.236,135.072v-2.864H35.95v.339H34.629v.9h1.209v.321H34.629v.97h1.388v.339Zm.64-2.994a7.963,7.963,0,0,0,.477-.678h.4c-.163.238-.331.469-.5.678Z" transform="translate(-14.692 -56.389)" fill="#fff"/>
      <path id="Tracé_44" data-name="Tracé 44" d="M40.368,134.5v1.179h-.393v-2.864h1.781v.339H40.368v1.025h1.209v.321Z" transform="translate(-17.155 -56.996)" fill="#fff"/>
      <path id="Tracé_45" data-name="Tracé 45" d="M45.639,135.072v-2.864h1.714v.339H46.032v.9h1.209v.321H46.032v.97h1.388v.339Zm.64-2.994a7.965,7.965,0,0,0,.477-.678h.4c-.163.238-.331.469-.5.678Z" transform="translate(-19.585 -56.389)" fill="#fff"/>
      <path id="Tracé_46" data-name="Tracé 46" d="M53,135.679l-.64-1.108c-.05,0-.1,0-.146,0h-.439v1.1h-.393v-2.864h.878a1.243,1.243,0,0,1,.873.234.85.85,0,0,1,.239.648.832.832,0,0,1-.226.611.76.76,0,0,1-.372.209l.677,1.162Zm-.748-2.542h-.477v1.125h.477c.531,0,.715-.2.715-.561,0-.409-.247-.564-.715-.564" transform="translate(-22.048 -56.996)" fill="#fff"/>
      <path id="Tracé_47" data-name="Tracé 47" d="M57.512,135.678v-2.865h1.714v.339H57.9v.9h1.209v.321H57.9v.97h1.388v.339Z" transform="translate(-24.681 -56.996)" fill="#fff"/>
      <path id="Tracé_48" data-name="Tracé 48" d="M65.048,135.678l-1.426-2.249h-.013v2.249H63.25v-2.865h.443l1.392,2.229H65.1v-2.229h.364v2.865Z" transform="translate(-27.143 -56.996)" fill="#fff"/>
      <path id="Tracé_49" data-name="Tracé 49" d="M70.76,135.693a1.14,1.14,0,0,1-.824-.321,1.6,1.6,0,0,1-.376-1.167,1.3,1.3,0,0,1,1.447-1.493c.2,0,.414.017.64.038v.355a5.383,5.383,0,0,0-.627-.041c-.786,0-1.054.438-1.054,1.145s.293,1.138.9,1.138a3.207,3.207,0,0,0,.836-.159v.343a3.625,3.625,0,0,1-.937.163" transform="translate(-29.851 -56.952)" fill="#fff"/>
      <path id="Tracé_50" data-name="Tracé 50" d="M75.8,135.678v-2.865H77.51v.339H76.189v.9H77.4v.321H76.189v.97h1.388v.339Z" transform="translate(-32.527 -56.996)" fill="#fff"/>
      <path id="Tracé_51" data-name="Tracé 51" d="M85.156,135.678v-2.525h-.982v-.339h2.362v.339h-.982v2.525Z" transform="translate(-36.122 -56.996)" fill="#fff"/>
      <path id="Tracé_52" data-name="Tracé 52" d="M90.548,135.072v-2.864h1.714v.339H90.941v.9h1.209v.321H90.941v.97h1.388v.339Zm1.175-2.994c-.108-.146-.2-.28-.313-.44-.1.16-.2.293-.309.44h-.381a7.32,7.32,0,0,0,.5-.678h.389a7.365,7.365,0,0,0,.493.678Z" transform="translate(-38.858 -56.389)" fill="#fff"/>
      <path id="Tracé_53" data-name="Tracé 53" d="M96.456,135.678v-2.525h-.982v-.339h2.362v.339h-.982v2.525Z" transform="translate(-40.971 -56.996)" fill="#fff"/>
      <path id="Tracé_54" data-name="Tracé 54" d="M101.848,135.678v-2.865h1.714v.339h-1.322v.9h1.209v.321h-1.209v.97h1.388v.339Z" transform="translate(-43.707 -56.996)" fill="#fff"/>
      <path id="Tracé_55" data-name="Tracé 55" d="M110.892,135.678v-2.865h1.714v.339h-1.322v.9h1.209v.321h-1.209v.97h1.388v.339Z" transform="translate(-47.588 -56.996)" fill="#fff"/>
      <path id="Tracé_56" data-name="Tracé 56" d="M116.8,135.678v-2.525h-.982v-.339h2.362v.339H117.2v2.525Z" transform="translate(-49.701 -56.996)" fill="#fff"/>
      <path id="Tracé_57" data-name="Tracé 57" d="M126.228,135.693a1.14,1.14,0,0,1-.824-.321,1.6,1.6,0,0,1-.376-1.167,1.3,1.3,0,0,1,1.447-1.493c.2,0,.414.017.64.038v.355a5.383,5.383,0,0,0-.627-.041c-.786,0-1.054.438-1.054,1.145s.293,1.138.9,1.138a3.207,3.207,0,0,0,.836-.159v.343a3.625,3.625,0,0,1-.937.163" transform="translate(-53.654 -56.952)" fill="#fff"/>
      <path id="Tracé_58" data-name="Tracé 58" d="M132.907,133.009a1.953,1.953,0,0,1,0,2.387,1.359,1.359,0,0,1-.928.3,1.38,1.38,0,0,1-.924-.3,1.518,1.518,0,0,1-.409-1.191,1.5,1.5,0,0,1,.409-1.2,1.386,1.386,0,0,1,.928-.3,1.364,1.364,0,0,1,.92.3m0,1.2c0-.752-.288-1.154-.924-1.154-.66,0-.932.36-.932,1.137,0,.757.293,1.158.928,1.158.656,0,.928-.36.928-1.142" transform="translate(-56.067 -56.952)" fill="#fff"/>
      <path id="Tracé_59" data-name="Tracé 59" d="M137.914,135.453a1.245,1.245,0,0,1-.251-.957v-1.681h.393v1.731a.953.953,0,0,0,.155.643.706.706,0,0,0,.569.21.687.687,0,0,0,.565-.214.91.91,0,0,0,.155-.631v-1.739h.38V134.5a1.233,1.233,0,0,1-.251.957,1.142,1.142,0,0,1-.857.284,1.125,1.125,0,0,1-.857-.284" transform="translate(-59.077 -56.996)" fill="#fff"/>
      <path id="Tracé_60" data-name="Tracé 60" d="M76.984,70.64v1.281c.771.281,1.4.672,1.4,1.41a1.9,1.9,0,0,1-.268.976c-.024.035-.051.08-.086.139a2.446,2.446,0,0,1-.462.594c-1.117,1.065-1.969,1.6-2.361,2.121a2.911,2.911,0,0,0-.233,2.562A2.649,2.649,0,0,1,75.2,77.84a4.053,4.053,0,0,1,.457-.57,21.186,21.186,0,0,1,2.149-1.633,1.521,1.521,0,0,1,.137-.087,2.725,2.725,0,0,0,1.415-2.218c0-1.637-1.205-2.237-2.379-2.691" transform="translate(-32.099 -30.314)" fill="#fff"/>
      <path id="Tracé_61" data-name="Tracé 61" d="M70.784,41a3.628,3.628,0,0,0-1.01,2.587c0,.079.007.153.012.229a4.249,4.249,0,0,0,.068.625,3.389,3.389,0,0,0,.363,1l.581-.126c.03-.055.061-.111.095-.165l.006-.009.274-.393v0a4.251,4.251,0,0,1,.631-.638,1.5,1.5,0,0,1-.092-.524,1.377,1.377,0,0,1,.131-.592,1.663,1.663,0,0,1,.3-.45,5.5,5.5,0,0,1,1.73-.98V39.067c-.389.195-.831.389-1.115.521a8.267,8.267,0,0,0-1.622,1.061,4.671,4.671,0,0,0-.357.347" transform="translate(-29.943 -16.765)" fill="#fff"/>
      <path id="Tracé_62" data-name="Tracé 62" d="M77.387,26.774a1.69,1.69,0,0,0,1.182.839c1.084.269,2.363.032,2.363,1.823a2.825,2.825,0,0,1-1.5,2.4s-.65.354-1.392.734v2.548c.546-.255,1.106-.535,1.392-.687a8.621,8.621,0,0,0,2.215-1.475A4.8,4.8,0,0,0,83.1,30.226a6.353,6.353,0,0,0,.071-.756c0-.087.011-.171.011-.26a3.619,3.619,0,0,0-.066-.639,4,4,0,0,0-3.984-3.455,2.635,2.635,0,0,0-.979.173c-1.015.4-1.163,1.378-.766,1.485m2.217-.949a.787.787,0,0,1,.574.312,1.008,1.008,0,0,1-.521.167.674.674,0,0,1-.543-.277.767.767,0,0,1,.491-.2" transform="translate(-33.122 -10.778)" fill="#fff"/>
      <path id="Tracé_63" data-name="Tracé 63" d="M74.951,64.174c-.7-.32-1.3-.739-1.3-1.57a1.156,1.156,0,0,1,.127-.538,1.086,1.086,0,0,1,.408-.376c.183-.095.424-.21.691-.332.1-.047.209-.1.317-.143h0l.22-.1c.085-.038.168-.075.255-.111.816-.357,1.6-.679,1.6-.679.257-.1.507-.212.747-.336.144-.074.286-.153.421-.239a2.975,2.975,0,0,0,1.416-1.858,3.31,3.31,0,0,0,.079-.524c.006-.086.013-.174.013-.265a3.086,3.086,0,0,0-.08-.715l-.855.185a3.808,3.808,0,0,1-1.185,1.361.726.726,0,0,1-.17.284,2.532,2.532,0,0,1-.355.307l-.045.031a10.43,10.43,0,0,1-1.584.847c-.162.074-.274.114-.429.182-.7.308-1.341.575-1.341.575A2.557,2.557,0,0,0,72.273,62.6c0,1.931,1.428,2.529,2.678,2.933Z" transform="translate(-31.015 -24.199)" fill="#fff"/>
      <path id="Tracé_64" data-name="Tracé 64" d="M77.384,61.139c.156-.069.316-.14.476-.214v-.467h-.476Z" transform="translate(-33.209 -25.945)" fill="#fff"/>
      <path id="Tracé_65" data-name="Tracé 65" d="M74.305,46.26l-.477-.9a1.453,1.453,0,0,0-.289.476l.341.643Z" transform="translate(-31.558 -19.467)" fill="#fff"/>
      <path id="Tracé_66" data-name="Tracé 66" d="M83.388,42.735l.266.379,0,0,7.758-5.227,0,.005-.486,1.615,5.3-5.153L89.46,37.34l1.677.154Z" transform="translate(-35.785 -14.744)" fill="#fff"/>
      <path id="Tracé_67" data-name="Tracé 67" d="M84.816,28.673l.293-.124-.327.617a5.032,5.032,0,0,1-1.8,3.387l-2.273,4.272.427.225h0l4.4-8.266.333,1.648,2.263-7.044-3.395,4.307a3.9,3.9,0,0,1,.09.774c0,.07-.006.135-.008.2" transform="translate(-34.635 -10.036)" fill="#fff"/>
      <path id="Tracé_68" data-name="Tracé 68" d="M54.544,37.9l6.438,4.343a4.591,4.591,0,0,1-.059-.618L54.8,37.495l1.694-.156-6.77-2.981,5.294,5.152Z" transform="translate(-21.34 -14.744)" fill="#fff"/>
      <path id="Tracé_69" data-name="Tracé 69" d="M67.979,59.423l-3.86,7.262,0,0-2.177,1.8-2.079,3.9,2.66-2.19-.341,3.429,2.075-3.894.279-2.8L68.4,59.645Z" transform="translate(-25.688 -25.501)" fill="#fff"/>
      <path id="Tracé_70" data-name="Tracé 70" d="M88.02,69.856l-2.171-1.8L83,62.63c-.135.084-.276.164-.419.237l2.841,5.415h0L85.7,71.1l2.077,3.894-.341-3.43,2.659,2.191Z" transform="translate(-35.44 -26.877)" fill="#fff"/>
      <path id="Tracé_71" data-name="Tracé 71" d="M75.511,73.185v1.258c.964-.855,1.4-1.2,2.309-2.009l-.764-1.861v-.718h0V64.866l-.474.211h0v4.776h0v.718Z" transform="translate(-32.405 -27.837)" fill="#fff"/>
      <path id="Tracé_72" data-name="Tracé 72" d="M75.433,82.134v1.937l1.31-3.192,1.307,3.192V79.738a15.788,15.788,0,0,0-1.456,1.074,3.781,3.781,0,0,0-1.161,1.322" transform="translate(-32.371 -34.219)" fill="#fff"/>
      <path id="Tracé_73" data-name="Tracé 73" d="M61.953,57.323l-.263-.4-6.831,4.616-2.771.566-3.659,2.468,3.378-.69L49.9,66.76l3.663-2.479,1.564-2.342Z" transform="translate(-20.783 -24.429)" fill="#fff"/>
      <path id="Tracé_74" data-name="Tracé 74" d="M98.04,65.209l-3.659-2.468-2.766-.566L85.98,58.4a3.162,3.162,0,0,1-.09.517l5.451,3.655,1.565,2.342,3.659,2.479-1.9-2.875Z" transform="translate(-36.859 -25.062)" fill="#fff"/>
      <path id="Tracé_75" data-name="Tracé 75" d="M76.58,27.723h0v6.017h0v1.038h.476V25.4l1.07,1.318-.251-1.4a1.852,1.852,0,0,1-1.3-.871.5.5,0,0,1-.237-.562,1.576,1.576,0,0,1,1.069-1.156l-.591-3.294-1.31,7.287L76.58,25.4Z" transform="translate(-32.404 -8.337)" fill="#fff"/>
      <path id="Tracé_76" data-name="Tracé 76" d="M64.486,28.785l2.788,5.239c.116-.12.235-.237.36-.346l-2.727-5.123v0l1.566.654-4.581-5.815,2.263,7.044Z" transform="translate(-26.561 -10.037)" fill="#fff"/>
      <path id="Tracé_77" data-name="Tracé 77" d="M71.6,53.455l.1-.082a3.943,3.943,0,0,0,.514-.554l.26-.4c.039-.065.071-.13.106-.2l.938-.2.063-.012L73.646,52l6.907-1.478-7.971-1.706c-.047-.095-.1-.186-.153-.278l-.267-.382a3.766,3.766,0,0,0-1.024-.907l-.427-.224a3.767,3.767,0,0,0-1.322-.323h-.474a3.768,3.768,0,0,0-1.329.327l-.424.222a3.3,3.3,0,0,0-.368.257c-.016.011-.032.026-.047.038a.619.619,0,0,0-.055.046,3.767,3.767,0,0,0-.544.556l-.274.393c-.05.081-.094.164-.136.245l-.606.128-.067.015L65,48.941l-7.351,1.581,8.1,1.738c.025.053.055.1.082.154l.264.4a3.8,3.8,0,0,0,1.042.958l.417.223a3.907,3.907,0,0,0,1.367.343h.474a3.851,3.851,0,0,0,1.365-.343h0l.424-.232c.111-.07.218-.146.322-.225.033-.026.066-.055.1-.082m1.354-3.4a3.864,3.864,0,0,0-.137-.638l5.258,1.1-4.643.978-.067.015-.068.014-.48.1a3.48,3.48,0,0,0,.126-.585c0-.021.01-.042.011-.062l.016,0,.076-.014,2.4-.446Zm-7.606.934a3.619,3.619,0,0,0,.144.671l-5.378-1.136,5.229-1.108.075-.017.074-.016a.664.664,0,0,0-.018.07c-.009.023-.014.049-.021.074a3.6,3.6,0,0,0-.106.524l-2.527.465Zm3.8,2.947a3.414,3.414,0,0,1-3.356-4.1c.005-.025.012-.048.018-.072s.013-.046.018-.069a3.437,3.437,0,0,1,1.1-1.778c.017-.014.033-.03.049-.046a.472.472,0,0,0,.048-.035,3.418,3.418,0,0,1,5.542,2.685l0,0c0,.03,0,.055,0,.083s0,.05,0,.074a3.384,3.384,0,0,1-.833,2.075l-.057.065c-.02.021-.038.044-.059.064a3.411,3.411,0,0,1-2.463,1.049" transform="translate(-24.738 -20.04)" fill="#fff"/>
      <path id="Tracé_78" data-name="Tracé 78" d="M78.348,51c-.008-.028-.015-.055-.022-.084a2.456,2.456,0,0,0-2.363-1.812,2.427,2.427,0,0,0-1.278.364c-.022.013-.043.025-.064.038l-.06.041a2.459,2.459,0,0,0-1.036,1.765c0,.024,0,.048,0,.071s0,.051,0,.074,0,.064,0,.1A2.451,2.451,0,0,0,77.859,53.1c.015-.018.026-.035.039-.054a.553.553,0,0,0,.039-.051,2.417,2.417,0,0,0,.476-1.437,2.532,2.532,0,0,0-.047-.473c-.006-.027-.013-.054-.018-.08M77.57,52.79c-.013.018-.028.034-.042.051l-.043.053a2.03,2.03,0,0,1-3.554-1.238c0-.026-.008-.05-.008-.076,0-.008,0-.016,0-.025a.4.4,0,0,1,.006-.045,2.03,2.03,0,0,1,1.081-1.745c.024-.013.048-.027.075-.04s.045-.027.07-.038a2.024,2.024,0,0,1,2.649,1c.014.03.033.058.045.088s.016.054.025.08a1.96,1.96,0,0,1-.3,1.938" transform="translate(-31.547 -21.073)" fill="#fff"/>
      <path id="Tracé_79" data-name="Tracé 79" d="M77.239,52.084a.742.742,0,0,0-.754.75.733.733,0,0,0,.2.5.845.845,0,0,0,.116.105.751.751,0,0,0,.439.142l.019,0a.661.661,0,0,0,.155-.022.746.746,0,0,0-.174-1.473" transform="translate(-32.823 -22.351)" fill="#fff"/>
      <path id="Tracé_80" data-name="Tracé 80" d="M17.471,120.856v.233h-1.2v-.233a.088.088,0,0,1,.082-.092l.238-.07-.325-.837h-1.8l-.325.837.239.07a.086.086,0,0,1,.075.092v.233h-1.19v-.233a.086.086,0,0,1,.075-.092l.233-.07,1.51-3.765h.569l1.5,3.765.232.07a.087.087,0,0,1,.076.092m-1.976-3c-.031-.077-.074-.209-.128-.394-.046.178-.085.31-.116.394l-.622,1.6h1.482Z" transform="translate(-5.695 -50.179)" fill="#fff"/>
      <path id="Tracé_81" data-name="Tracé 81" d="M23.746,118.342v-1.209l-.389-.07a.1.1,0,0,1-.087-.1V116.7h.988v3.857a3.344,3.344,0,0,1,.337.07.1.1,0,0,1,.082.1v.256h-.72a.138.138,0,0,1-.14-.11l-.046-.355a1.242,1.242,0,0,1-.988.5.973.973,0,0,1-.813-.384,1.817,1.817,0,0,1-.3-1.115,1.683,1.683,0,0,1,.343-1.092,1.14,1.14,0,0,1,.936-.442,1.028,1.028,0,0,1,.8.349m0,1.824v-1.418a.812.812,0,0,0-.679-.349.76.76,0,0,0-.645.291,1.363,1.363,0,0,0-.221.837q0,.831.43,1.023a.808.808,0,0,0,.32.058l.006.006a.967.967,0,0,0,.79-.447" transform="translate(-9.298 -50.082)" fill="#fff"/>
      <path id="Tracé_82" data-name="Tracé 82" d="M29.964,119.088a1.312,1.312,0,0,1,.447.3,1.255,1.255,0,0,1,.279.476,2.033,2.033,0,0,1,0,1.255,1.246,1.246,0,0,1-.279.476,1.3,1.3,0,0,1-.447.3,1.669,1.669,0,0,1-1.162,0,1.287,1.287,0,0,1-.447-.3,1.333,1.333,0,0,1-.285-.476,2.151,2.151,0,0,1,0-1.255,1.338,1.338,0,0,1,.285-.476,1.3,1.3,0,0,1,.447-.3,1.66,1.66,0,0,1,1.162,0m.07,2.231a1.67,1.67,0,0,0,0-1.638.74.74,0,0,0-.651-.291.945.945,0,0,0-.383.07.711.711,0,0,0-.267.221,1.035,1.035,0,0,0-.163.348,1.96,1.96,0,0,0-.058.477,1.91,1.91,0,0,0,.058.465,1.03,1.03,0,0,0,.163.348.662.662,0,0,0,.267.21.947.947,0,0,0,.383.082.739.739,0,0,0,.651-.291" transform="translate(-12.006 -51.06)" fill="#fff"/>
      <path id="Tracé_83" data-name="Tracé 83" d="M35.381,120.747V121H34.022v-.249a.1.1,0,0,1,.092-.11l.326-.065v-3.433c-.179-.035-.287-.058-.326-.07a.1.1,0,0,1-.092-.105v-.249h.941v3.852c.178.035.287.058.325.07a.1.1,0,0,1,.092.11" transform="translate(-14.6 -50.087)" fill="#fff"/>
      <path id="Tracé_84" data-name="Tracé 84" d="M39.266,118.964a.972.972,0,0,1,.813.384,1.853,1.853,0,0,1,.3,1.127,1.689,1.689,0,0,1-.337,1.086,1.1,1.1,0,0,1-.895.441,1.084,1.084,0,0,1-.849-.342v.871l.158.035.168.035a.1.1,0,0,1,.093.11v.25H37.36v-.25a.1.1,0,0,1,.093-.11l.325-.063v-3.092c-.178-.035-.287-.058-.325-.069a.1.1,0,0,1-.093-.111v-.244h.732a.136.136,0,0,1,.139.105l.041.348h.006a1.257,1.257,0,0,1,.988-.511m-.291,2.638a.768.768,0,0,0,.651-.291,1.369,1.369,0,0,0,.22-.836,1.432,1.432,0,0,0-.192-.816.642.642,0,0,0-.563-.276.967.967,0,0,0-.791.448v1.424a.808.808,0,0,0,.674.349" transform="translate(-16.033 -51.052)" fill="#fff"/>
      <path id="Tracé_85" data-name="Tracé 85" d="M45.632,118.014a.918.918,0,0,1,.732.3,1.219,1.219,0,0,1,.256.814v1.446c.186.035.3.059.332.07a.1.1,0,0,1,.087.111V121H46.1V119.13q0-.7-.622-.7a1.054,1.054,0,0,0-.789.412v1.743l.07.012.255.052a.1.1,0,0,1,.093.111V121H43.75v-.244a.1.1,0,0,1,.093-.111l.326-.064v-3.434a3.768,3.768,0,0,1-.384-.07.1.1,0,0,1-.093-.11v-.244h1v1.731a1.282,1.282,0,0,1,.941-.441" transform="translate(-18.75 -50.091)" fill="#fff"/>
      <path id="Tracé_86" data-name="Tracé 86" d="M52.441,119.07a.977.977,0,0,1,.382.25,1.181,1.181,0,0,1,.256.412,1.663,1.663,0,0,1,.093.558.332.332,0,0,1-.023.163.121.121,0,0,1-.105.04H51.092a1.536,1.536,0,0,0,.07.489.946.946,0,0,0,.2.337.752.752,0,0,0,.291.21,1,1,0,0,0,.372.069,1.157,1.157,0,0,0,.337-.04,2.185,2.185,0,0,0,.244-.1c.085-.042.143-.074.174-.092a.251.251,0,0,1,.116-.047.112.112,0,0,1,.1.053l.145.191a.835.835,0,0,1-.232.2,1.327,1.327,0,0,1-.284.146,2.234,2.234,0,0,1-.314.082,1.947,1.947,0,0,1-.319.029,1.515,1.515,0,0,1-.564-.1,1.246,1.246,0,0,1-.448-.308,1.319,1.319,0,0,1-.291-.494,2.024,2.024,0,0,1-.1-.674,1.609,1.609,0,0,1,.1-.57,1.379,1.379,0,0,1,.272-.465,1.264,1.264,0,0,1,.436-.308,1.421,1.421,0,0,1,.569-.11,1.333,1.333,0,0,1,.483.087m-1.058.506a1.066,1.066,0,0,0-.268.6h1.6a.96.96,0,0,0-.052-.326.758.758,0,0,0-.14-.261.769.769,0,0,0-.238-.169.817.817,0,0,0-.319-.058l.005-.006a.778.778,0,0,0-.586.215" transform="translate(-21.706 -51.06)" fill="#fff"/>
      <path id="Tracé_87" data-name="Tracé 87" d="M61.017,118.342v-1.209l-.389-.07a.1.1,0,0,1-.087-.1V116.7h.988v3.857a3.343,3.343,0,0,1,.337.07.1.1,0,0,1,.082.1v.256h-.72a.138.138,0,0,1-.14-.11l-.046-.355a1.242,1.242,0,0,1-.988.5.973.973,0,0,1-.813-.384,1.817,1.817,0,0,1-.3-1.115,1.683,1.683,0,0,1,.343-1.092,1.14,1.14,0,0,1,.936-.442,1.028,1.028,0,0,1,.8.349m0,1.824v-1.418a.812.812,0,0,0-.679-.349.76.76,0,0,0-.645.291,1.363,1.363,0,0,0-.221.837q0,.831.43,1.023a.808.808,0,0,0,.32.058l.006.006a.967.967,0,0,0,.79-.447" transform="translate(-25.292 -50.082)" fill="#fff"/>
      <path id="Tracé_88" data-name="Tracé 88" d="M67.087,119.07a.977.977,0,0,1,.382.25,1.181,1.181,0,0,1,.256.412,1.663,1.663,0,0,1,.093.558.332.332,0,0,1-.023.163.121.121,0,0,1-.105.04H65.738a1.536,1.536,0,0,0,.07.489.945.945,0,0,0,.2.337.752.752,0,0,0,.291.21,1,1,0,0,0,.372.069,1.157,1.157,0,0,0,.337-.04,2.185,2.185,0,0,0,.244-.1c.085-.042.143-.074.174-.092a.251.251,0,0,1,.116-.047.112.112,0,0,1,.1.053l.145.191a.835.835,0,0,1-.232.2,1.327,1.327,0,0,1-.284.146,2.234,2.234,0,0,1-.314.082,1.947,1.947,0,0,1-.319.029,1.515,1.515,0,0,1-.564-.1,1.246,1.246,0,0,1-.448-.308,1.319,1.319,0,0,1-.291-.494,2.024,2.024,0,0,1-.1-.674,1.609,1.609,0,0,1,.1-.57,1.378,1.378,0,0,1,.272-.465,1.264,1.264,0,0,1,.436-.308,1.421,1.421,0,0,1,.569-.11,1.333,1.333,0,0,1,.483.087m-1.058.506a1.065,1.065,0,0,0-.268.6h1.6a.96.96,0,0,0-.052-.326.759.759,0,0,0-.14-.261.769.769,0,0,0-.238-.169.817.817,0,0,0-.319-.058l.005-.006a.778.778,0,0,0-.586.215" transform="translate(-27.991 -51.06)" fill="#fff"/>
      <path id="Tracé_89" data-name="Tracé 89" d="M77.087,120.867a.1.1,0,0,1,.023.065v.247h-.585a.229.229,0,0,1-.214-.118l-1.046-1.439a.346.346,0,0,0-.1-.1.321.321,0,0,0-.169-.034h-.36v1.271l.315.067a.146.146,0,0,1,.064.037.087.087,0,0,1,.026.065v.241H73.685v-.241a.1.1,0,0,1,.022-.065.13.13,0,0,1,.062-.037l.327-.067v-3.205l-.327-.068a.125.125,0,0,1-.062-.036.1.1,0,0,1-.022-.065v-.247h1.49a2.514,2.514,0,0,1,.663.079,1.248,1.248,0,0,1,.461.225.9.9,0,0,1,.27.355,1.21,1.21,0,0,1,.084.466,1.15,1.15,0,0,1-.067.393,1.186,1.186,0,0,1-.2.338,1.012,1.012,0,0,1-.309.253,1.5,1.5,0,0,1-.416.163.644.644,0,0,1,.18.169l.872,1.192c.179.03.285.049.315.057h-.006a.13.13,0,0,1,.062.037m-1.524-1.825a.917.917,0,0,0,.3-.168.692.692,0,0,0,.185-.248.794.794,0,0,0,.062-.326.648.648,0,0,0-.236-.54,1.141,1.141,0,0,0-.7-.18h-.546V119.1h.512a1.378,1.378,0,0,0,.422-.057" transform="translate(-31.621 -50.27)" fill="#fff"/>
      <path id="Tracé_90" data-name="Tracé 90" d="M84.266,120.223a1.811,1.811,0,0,1-.7.728,2.156,2.156,0,0,1-2.058-.006,1.819,1.819,0,0,1-.706-.734,2.4,2.4,0,0,1,0-2.132,1.836,1.836,0,0,1,.7-.734,2.171,2.171,0,0,1,2.072,0,1.814,1.814,0,0,1,.7.728,2.22,2.22,0,0,1,.25,1.068l-.005.011a2.218,2.218,0,0,1-.253,1.072M83.584,118a1.324,1.324,0,0,0-1.055-.43,1.419,1.419,0,0,0-.775.2,1.286,1.286,0,0,0-.487.562,1.946,1.946,0,0,0-.166.82,1.885,1.885,0,0,0,.175.835,1.294,1.294,0,0,0,.5.554,1.434,1.434,0,0,0,.762.2,1.411,1.411,0,0,0,.764-.2,1.3,1.3,0,0,0,.492-.559,1.907,1.907,0,0,0,.172-.828h-.006A1.7,1.7,0,0,0,83.584,118" transform="translate(-34.567 -50.245)" fill="#fff"/>
      <path id="Tracé_91" data-name="Tracé 91" d="M91.679,118.05H91.4c-.061,0-.1-.018-.107-.057a2.6,2.6,0,0,1-.057-.37H90.3v3.16l.067.012c.172.033.266.052.281.055.037.011.056.045.056.1v.236H89.339v-.236a.117.117,0,0,1,.025-.076.108.108,0,0,1,.071-.037l.309-.062v-3.16h-.95a3.78,3.78,0,0,1-.051.377c-.011.039-.049.057-.112.057h-.27v-.888h3.318Z" transform="translate(-37.919 -50.279)" fill="#fff"/>
      <path id="Tracé_92" data-name="Tracé 92" d="M98.977,120.778l.337.067a.091.091,0,0,1,.067.1v.242H98.021v-.242a.1.1,0,0,1,.09-.107l.315-.062v-1.423h-2.17v1.423c.27.057.4.112.4.169v.242H95.305v-.242a.1.1,0,0,1,.084-.107l.32-.062v-3.211l-.337-.068a.09.09,0,0,1-.068-.1v-.236H96.66v.236c0,.057-.019.09-.056.1s-.156.034-.343.068v1.389h2.17v-1.389l-.337-.068a.09.09,0,0,1-.067-.1v-.236h1.361v.236a.1.1,0,0,1-.084.107l-.326.062Z" transform="translate(-40.899 -50.279)" fill="#fff"/>
      <path id="Tracé_93" data-name="Tracé 93" d="M106.429,119.928a1.224,1.224,0,0,1-.349.905,1.35,1.35,0,0,1-1,.366,3.223,3.223,0,0,1-.551-.05,4.082,4.082,0,0,1-.45-.107l-.163-.056v-1.012h.275a.1.1,0,0,1,.112.095,2.537,2.537,0,0,1,.028.276l.017.248a2.191,2.191,0,0,0,.686.157,1.324,1.324,0,0,0,.416-.056.586.586,0,0,0,.259-.152.692.692,0,0,0,.214-.534.538.538,0,0,0-.3-.5,1.275,1.275,0,0,0-.3-.135c-.4-.124-.638-.2-.708-.236a1.215,1.215,0,0,1-.309-.2.954.954,0,0,1-.3-.754,1.045,1.045,0,0,1,.321-.765,1.239,1.239,0,0,1,.9-.337,2.934,2.934,0,0,1,1.13.225v.928h-.27a.106.106,0,0,1-.118-.1c0-.011,0-.05-.009-.115s-.016-.194-.031-.385a2.627,2.627,0,0,0-.663-.106.8.8,0,0,0-.562.179.581.581,0,0,0-.191.45.517.517,0,0,0,.3.466,1.427,1.427,0,0,0,.315.14q.506.169.708.253h-.011a.928.928,0,0,1,.607.905" transform="translate(-44.594 -50.245)" fill="#fff"/>
      <path id="Tracé_94" data-name="Tracé 94" d="M112.884,118.309h-.27a.111.111,0,0,1-.123-.1l-.046-.506a2.793,2.793,0,0,0-.849-.152,1.39,1.39,0,0,0-1.046.427,1.65,1.65,0,0,0-.411,1.164,1.9,1.9,0,0,0,.172.827,1.306,1.306,0,0,0,.49.56,1.358,1.358,0,0,0,.739.2,1.817,1.817,0,0,0,.571-.082,1.267,1.267,0,0,0,.458-.278.156.156,0,0,1,.1-.046.11.11,0,0,1,.079.034l.214.236a1.813,1.813,0,0,1-1.451.607,1.916,1.916,0,0,1-1.021-.267,1.766,1.766,0,0,1-.669-.734,2.322,2.322,0,0,1-.233-1.057,1.953,1.953,0,0,1,2.086-2.058,3.735,3.735,0,0,1,1.209.281Z" transform="translate(-47.029 -50.245)" fill="#fff"/>
      <path id="Tracé_95" data-name="Tracé 95" d="M120.442,120.778l.337.067a.091.091,0,0,1,.067.1v.242h-1.361v-.242a.1.1,0,0,1,.09-.107l.315-.062v-1.423h-2.17v1.423c.27.057.4.112.4.169v.242H116.77v-.242a.1.1,0,0,1,.084-.107l.32-.062v-3.211l-.337-.068a.09.09,0,0,1-.068-.1v-.236h1.355v.236c0,.057-.019.09-.056.1s-.156.034-.343.068v1.389h2.17v-1.389l-.337-.068a.09.09,0,0,1-.067-.1v-.236h1.361v.236a.1.1,0,0,1-.084.107l-.326.062Z" transform="translate(-50.111 -50.279)" fill="#fff"/>
      <path id="Tracé_96" data-name="Tracé 96" d="M126.314,120.778l.343.067a.091.091,0,0,1,.067.1v.242h-1.355v-.242a.1.1,0,0,1,.078-.107l.327-.062v-3.211l-.337-.068a.09.09,0,0,1-.067-.1v-.236h1.355v.236a.1.1,0,0,1-.084.107l-.326.062Z" transform="translate(-53.801 -50.279)" fill="#fff"/>
      <path id="Tracé_97" data-name="Tracé 97" d="M129.191,121.189v-.242a.116.116,0,0,1,.022-.07.09.09,0,0,1,.062-.037l.321-.062v-3.211l-.321-.062a.086.086,0,0,1-.062-.037.117.117,0,0,1-.022-.07v-.236h1.35v.236a.114.114,0,0,1-.023.07.084.084,0,0,1-.061.037l-.321.062v3.16h1.451a2.283,2.283,0,0,1,.034-.32.108.108,0,0,1,.039-.068.118.118,0,0,1,.079-.028h.276v.877Z" transform="translate(-55.441 -50.279)" fill="#fff"/>
      <path id="Tracé_98" data-name="Tracé 98" d="M139.222,120.226a1.759,1.759,0,0,1-.7.709,2.087,2.087,0,0,1-1.04.253h-1.862v-.236a.1.1,0,0,1,.09-.107l.315-.062v-3.211l-.315-.068a.1.1,0,0,1-.09-.107v-.236h1.862a2.09,2.09,0,0,1,1.052.256,1.746,1.746,0,0,1,.692.711,2.2,2.2,0,0,1,.241,1.046,2.171,2.171,0,0,1-.247,1.052m-.686-2.2a1.322,1.322,0,0,0-1.052-.426h-.905v3.148h.905a1.33,1.33,0,0,0,1.049-.421,1.962,1.962,0,0,0,0-2.3" transform="translate(-58.201 -50.279)" fill="#fff"/>
    </g>
  </g>
</svg>
